HIERARCHY
ROOT Hips
{
  OFFSET 0 0 0
  CHANNELS 6 Xposition Yposition Zposition Zrotation Yrotation Xrotation
  JOINT LeftThigh
  {
    OFFSET 8.409438 0 -5.917753
    CHANNELS 3 Zrotation Yrotation Xrotation
    JOINT LeftLeg
    {
      OFFSET 0 0 -42.358652
      CHANNELS 3 Zrotation Yrotation Xrotation
      JOINT LeftFoot
      {
        OFFSET 0 0 -39.357303
        CHANNELS 3 Zrotation Yrotation Xrotation
      }
    }
  }
  JOINT RightThigh
  {
    OFFSET -8.409438 0 -5.917753
    CHANNELS 3 Zrotation Yrotation Xrotation
    JOINT RightLeg
    {
      OFFSET 0 0 -42.358652
      CHANNELS 3 Zrotation Yrotation Xrotation
      JOINT RightFoot
      {
        OFFSET 0 0 -39.357303
        CHANNELS 3 Zrotation Yrotation Xrotation
      }
    }
  }
  JOINT SpineLow
  {
    OFFSET 0 0 4.719101
    CHANNELS 3 Zrotation Yrotation Xrotation
    JOINT SpineMid
    {
      OFFSET 0 0 12.899191
      CHANNELS 3 Zrotation Yrotation Xrotation
      JOINT Chest
      {
        OFFSET 0 0 12.899191
        CHANNELS 3 Zrotation Yrotation Xrotation
        JOINT LeftShoulder
        {
          OFFSET 7.550562 1.41573 9.438202
          CHANNELS 3 Zrotation Yrotation Xrotation
          JOINT LeftArm
          {
            OFFSET 9.155056 0 4.247191
            CHANNELS 3 Zrotation Yrotation Xrotation
            JOINT LeftForearm
            {
              OFFSET 0 0 25.771955
              CHANNELS 3 Zrotation Yrotation Xrotation
              JOINT LeftHand
              {
                OFFSET 0 0 25.197169
                CHANNELS 3 Zrotation Yrotation Xrotation
              }
            }
          }
        }
        JOINT RightShoulder
        {
          OFFSET -7.550562 1.41573 9.438202
          CHANNELS 3 Zrotation Yrotation Xrotation
          JOINT RightArm
          {
            OFFSET -9.155056 0 4.247191
            CHANNELS 3 Zrotation Yrotation Xrotation
            JOINT RightForearm
            {
              OFFSET 0 0 -25.771955
              CHANNELS 3 Zrotation Yrotation Xrotation
              JOINT RightHand
              {
                OFFSET 0 0 -25.197169
                CHANNELS 3 Zrotation Yrotation Xrotation
              }
            }
          }
        }
        JOINT Neck
        {
          OFFSET 0 0 15.101124
          CHANNELS 3 Zrotation Yrotation Xrotation
          JOINT Head
          {
            OFFSET 0 0 11.325843
            CHANNELS 3 Zrotation Yrotation Xrotation
            End Site
            {
              OFFSET 0 0 14.157303
            }
          }
        }
      }
    }
  }
}
MOTION
Frames: 17
Frame Time: 0.0
0.0  93.25843  0.0  -2.999726  6.045132  -91.208152  4.842233  -16.180239  0.185512  -6.584015  -2.336483  6.683403  6.33728  1.801135  2.625543  -8.78076  3.764306  -2.51746  -7.300171  5.989796  7.225391  -0.342042  0.937175  0.245254  1.143235  0.546319  -0.606097  3.111506  1.521468  -1.63072  3.111506  1.521468  -1.63072  -34.665604  20.756419  17.892093  -153.599473  32.726834  -94.460639  -37.809523  28.117487  65.61654  48.955362  -6.805683  22.092916  4.179721  -22.572436  25.469357  114.490162  63.020332  42.380506  -37.303655  -29.071137  -101.635987  50.43148  -8.598261  -12.15846  -8.649146  -1.315536  9.870413  -6.467334  -1.126982  7.385628  
0.0  93.25843  0.0  -3.058462  6.197242  -91.226505  4.656573  -16.363672  -0.055568  -6.544388  -2.024844  7.21999  6.346961  1.776401  2.6009  -8.878853  3.751673  -2.525875  -7.281276  6.005457  7.397016  -0.344987  0.941011  0.252158  1.137407  0.548574  -0.626884  3.095035  1.528458  -1.687568  3.095035  1.528458  -1.687568  -34.595376  20.772512  17.992311  -154.019992  32.38939  -94.653997  -38.700959  28.809667  65.081303  49.323852  -6.836197  21.412272  4.111854  -22.575546  25.466735  114.428516  62.724186  42.193351  -37.503991  -29.012342  -101.273676  50.500266  -8.625963  -12.080124  -8.809209  -1.434149  9.922603  -6.58534  -1.219344  7.422729  
0.0  93.25843  0.0  -3.099064  6.429846  -91.252378  3.901428  -16.596956  -0.613545  -6.354572  -1.607923  7.99996  6.555018  1.793324  2.759103  -9.175213  3.729826  -2.603647  -7.474372  6.044894  7.54693  -0.140729  0.98346  0.287986  1.116269  0.545457  -0.640279  3.037013  1.520019  -1.724815  3.037014  1.520019  -1.724815  -34.573359  20.779525  18.033931  -154.488601  32.173759  -94.843443  -39.257871  29.110709  64.934141  49.530911  -6.910309  20.682011  4.186712  -22.570092  25.528855  113.96981  62.494634  41.859622  -37.380766  -28.984628  -101.126435  50.65264  -8.584209  -11.990518  -8.971646  -1.51856  9.948565  -6.705732  -1.285722  7.440605  
0.0  93.25843  0.0  -3.148126  6.679404  -91.290644  3.662041  -16.80767  -0.96328  -6.323392  -1.180134  8.753924  6.537703  1.769227  2.737293  -9.285106  3.734455  -2.61662  -7.504862  6.093087  7.784464  -0.149458  0.983029  0.302656  1.07657  0.536455  -0.650792  2.928474  1.494859  -1.754866  2.928474  1.494859  -1.754866  -34.44799  20.792743  18.059639  -154.883714  32.019567  -95.062154  -39.203699  29.194729  65.286759  49.543093  -7.010091  19.818632  4.120421  -22.416927  25.527092  113.230556  62.160397  41.115332  -37.127587  -28.821316  -101.135659  50.592974  -8.688644  -11.895175  -9.068242  -1.570542  9.980748  -6.777256  -1.326792  7.463744  
0.0  93.25843  0.0  -3.154353  7.005039  -91.324415  3.130044  -16.99825  -1.486809  -6.308283  -0.720728  9.587427  6.576831  1.799211  2.795227  -9.580682  3.751729  -2.729775  -8.113817  6.141984  7.920782  0.305044  1.111073  0.400685  1.01078  0.531771  -0.6649  2.748427  1.480914  -1.795123  2.748427  1.480914  -1.795123  -34.29451  20.79262  18.098996  -154.944022  31.986581  -95.272568  -38.848525  29.220044  65.915881  49.324296  -7.076826  18.897378  4.187373  -22.284855  25.635768  112.398001  61.846069  40.350033  -36.684903  -28.651352  -101.27414  50.610169  -8.764556  -11.655425  -9.113299  -1.608161  10.024575  -6.810325  -1.356419  7.495941  
0.0  93.25843  0.0  -3.225323  7.228996  -91.385268  3.011058  -17.198174  -1.909249  -6.331878  -0.252948  10.480561  6.55982  1.776701  2.784173  -9.559496  3.736403  -2.805312  -8.209671  6.272727  8.299704  0.319294  1.112763  0.432334  0.959116  0.504135  -0.661328  2.607996  1.403862  -1.7876  2.607996  1.403862  -1.7876  -34.19989  20.827194  17.993399  -155.044766  31.850763  -95.457451  -38.122568  29.206876  66.668931  49.342923  -7.161464  17.897535  4.005552  -21.991271  25.620255  111.770932  61.472574  39.58035  -36.195709  -28.490089  -101.435677  50.536681  -8.874395  -11.489512  -9.162671  -1.608541  10.005032  -6.8474  -1.357224  7.481168  
0.0  93.25843  0.0  -3.205304  7.52169  -91.403909  2.65453  -17.293801  -2.544157  -6.112355  0.201881  11.66205  6.504099  1.761649  2.764217  -9.586095  3.752312  -3.03737  -9.483137  6.349919  8.484143  0.909222  1.256713  0.558454  0.88743  0.486248  -0.660502  2.412522  1.353026  -1.787524  2.412522  1.353026  -1.787524  -34.198025  20.841008  17.878061  -154.918448  31.540114  -95.611732  -37.276996  28.787077  67.504879  49.189138  -6.991074  17.102531  3.822358  -21.688017  25.659565  111.438107  61.034514  38.99057  -35.658114  -28.385516  -101.626513  50.599142  -8.907788  -11.325371  -9.172701  -1.587137  9.965116  -6.855373  -1.340724  7.451538  
0.0  93.25843  0.0  -3.263232  7.529321  -91.460165  3.132711  -17.393484  -2.979676  -6.442022  0.576512  12.505481  6.49892  1.770296  2.760379  -9.173402  3.630587  -3.312691  -9.525703  6.670086  9.174982  0.879568  1.288283  0.593484  0.83899  0.439217  -0.656385  2.28142  1.223058  -1.778863  2.28142  1.223058  -1.778863  -34.136431  21.081152  17.807578  -154.573424  31.196641  -95.609888  -36.172716  28.941916  68.470646  49.866746  -6.963199  16.298159  3.537919  -21.282487  25.687321  111.335942  60.570895  38.488132  -35.070452  -28.270084  -101.832807  50.597616  -8.963752  -11.26497  -9.118715  -1.513752  9.905735  -6.816232  -1.283878  7.408247  
0.0  93.25843  0.0  -3.105323  7.793116  -91.362132  3.623024  -17.203392  -3.514146  -6.73015  0.913505  13.484693  6.51231  1.74212  2.717728  -9.002685  3.590372  -3.825004  -10.423706  6.986425  9.720873  1.575604  1.565638  0.767779  0.7399  0.416855  -0.657555  2.011125  1.159329  -1.784581  2.011126  1.159329  -1.784582  -34.053918  21.295975  17.607023  -154.172806  30.740476  -95.703342  -34.904526  29.038986  69.616772  50.815347  -6.882914  15.740367  3.291644  -20.867411  25.659849  111.420223  60.026903  38.12764  -34.408811  -28.107665  -102.056083  50.63947  -8.915057  -11.246626  -9.047807  -1.382919  9.77436  -6.765467  -1.182587  7.31185  
0.0  93.25843  0.0  -3.148761  7.437614  -91.344402  4.862587  -17.183394  -3.964786  -7.432241  1.175479  14.185989  6.563356  1.748801  2.692407  -8.005257  3.256277  -4.284467  -10.689172  7.612726  10.580392  1.528925  1.683539  0.812792  0.698513  0.347891  -0.6479  1.899963  0.969469  -1.760869  1.899963  0.969468  -1.760868  -33.851174  21.526897  17.430724  -153.65834  30.184937  -95.691285  -33.493518  29.122539  70.930163  52.135071  -6.804595  15.267559  3.028954  -20.404522  25.54925  111.656192  59.415256  37.863598  -33.637373  -27.893146  -102.394532  50.645837  -8.912065  -11.282676  -8.828967  -1.246046  9.619101  -6.603799  -1.074104  7.19783  
0.0  93.25843  0.0  -2.909749  7.537501  -91.017404  5.808881  -16.770475  -4.569929  -8.132794  1.342588  14.849577  6.597575  1.724935  2.646669  -7.546329  3.127693  -5.217543  -11.363934  8.390932  11.495646  1.944416  1.836724  0.927742  0.546203  0.322529  -0.677987  1.483898  0.89678  -1.84592  1.483898  0.89678  -1.845919  -33.542591  21.726145  17.214546  -153.049127  29.610112  -95.672393  -31.999945  29.060567  72.425616  53.663477  -6.598906  14.698031  3.064347  -20.008846  25.573261  111.794905  58.948904  37.760627  -32.65309  -27.585245  -102.900978  50.671876  -8.906825  -11.308308  -8.485313  -1.078549  9.437887  -6.348942  -0.940455  7.064853  
0.0  93.25843  0.0  -2.982397  6.330951  -90.928809  7.946737  -16.680126  -4.88157  -8.915642  1.399599  15.352895  6.566558  1.735965  2.59864  -5.808792  2.614938  -6.030774  -11.710903  9.29955  12.671145  1.895233  2.040129  0.940605  0.570707  0.225063  -0.681105  1.553534  0.631164  -1.856354  1.553534  0.631164  -1.856353  -33.159153  21.947696  16.888355  -152.430731  29.12474  -95.742693  -30.352349  28.942535  74.186567  55.478162  -6.248809  13.859296  2.825078  -19.457046  25.570106  111.9524  58.430417  37.562577  -31.376474  -27.179183  -103.623358  50.616332  -9.008321  -11.328627  -8.039561  -0.901097  9.246892  -6.017551  -0.797867  6.9246  
0.0  93.25843  0.0  -3.035532  4.458274  -90.79771  10.414361  -16.448338  -5.024516  -9.587657  1.248566  15.693218  6.518846  1.787246  2.609965  -3.695039  2.07636  -7.049182  -11.87355  10.329406  13.989839  2.004982  2.234123  0.97643  0.656522  0.131889  -0.689604  1.790627  0.379159  -1.881241  1.790627  0.379159  -1.881241  -32.903807  22.004868  16.327068  -151.582464  28.773488  -96.081539  -28.642634  28.77105  76.268077  57.777868  -5.646527  12.794425  3.055809  -19.058693  25.737734  111.640315  58.204431  37.380357  -29.278343  -26.952447  -104.337666  50.989268  -8.500058  -11.248487  -7.528778  -0.746476  9.013003  -5.636952  -0.671203  6.751681  
0.0  93.25843  0.0  -3.046453  2.070206  -90.661967  12.87014  -16.075553  -4.832182  -10.038757  0.889571  15.846714  6.403324  1.876789  2.606744  -1.460956  1.52012  -8.152489  -11.835411  11.374385  15.312836  2.062304  2.442901  0.995048  0.784918  0.041159  -0.681003  2.144143  0.134578  -1.859896  2.144143  0.134578  -1.859896  -32.338629  22.049467  15.720791  -150.684983  28.702729  -96.408271  -26.578781  28.518211  78.866962  60.584763  -4.857868  11.7155  3.044567  -18.527273  25.720526  111.423895  57.734471  37.008815  -27.517135  -26.457522  -105.367472  51.171114  -8.507578  -11.291828  -6.779184  -0.596583  8.75554  -5.077033  -0.544787  6.560938  
0.0  93.25843  0.0  -2.989998  -0.733438  -90.426958  14.905534  -15.631495  -4.412074  -10.21302  0.528479  15.79476  6.207624  2.009471  2.498133  0.681525  0.984289  -9.387501  -11.479105  12.376407  16.587128  2.275314  2.680817  1.021196  0.935551  -0.031059  -0.684508  2.557879  -0.0584  -1.871915  2.557879  -0.0584  -1.871915  -31.49281  21.942708  15.228025  -149.564572  28.679419  -96.546353  -24.209996  27.811065  81.743283  63.698936  -4.008427  11.159583  3.273482  -18.104026  25.795398  111.070768  57.235774  36.666633  -25.806671  -25.853361  -106.459001  51.434585  -8.476362  -11.477485  -6.008181  -0.442037  8.457265  -4.501019  -0.414825  6.3393  
0.0  93.25843  0.0  -2.889796  -3.928039  -90.066432  16.191817  -15.184075  -3.899474  -9.605342  0.245293  15.841047  6.29723  2.147235  2.50538  2.662653  0.516981  -10.847051  -10.800327  13.233667  17.862877  2.360304  2.858232  0.988491  1.11351  -0.088201  -0.684802  3.045895  -0.209485  -1.875449  3.045895  -0.209485  -1.875449  -30.463545  21.653416  14.770393  -148.192186  28.677515  -96.39192  -21.648122  26.32418  84.763012  67.192152  -3.203232  11.264746  3.444426  -17.689462  25.714718  110.774294  56.50733  36.305606  -24.186103  -25.142099  -107.607099  51.702554  -8.473834  -11.799671  -4.968278  -0.310337  8.171197  -3.722839  -0.299275  6.126341  
0.0  93.25843  0.0  -2.704063  -7.652716  -89.685903  16.787502  -14.717616  -3.228283  -8.224104  0.104244  15.93573  6.570651  2.279239  2.536295  4.257914  0.257278  -12.460485  -9.591221  13.813406  19.136274  2.528823  2.994982  0.93055  1.3726  -0.094845  -0.669275  3.754171  -0.221156  -1.834108  3.754171  -0.221156  -1.834107  -29.579986  20.978638  14.111204  -146.461842  28.883681  -96.231969  -19.017947  24.315751  87.898197  71.191973  -2.518246  11.808272  3.459646  -17.478774  25.726336  110.360673  55.905123  35.952192  -22.52011  -24.36984  -108.831502  51.972474  -8.499912  -12.248168  -3.967886  -0.302868  7.844635  -2.972601  -0.278156  5.881791  
